<mxfile host="app.diagrams.net" agent="Mozilla/5.0 (Windows NT 10.0; Win64; x64) AppleWebKit/537.36 (KHTML, like Gecko) Chrome/132.0.0.0 Safari/537.36" version="26.0.6">
  <diagram name="第 1 页" id="-78T5JWSiIahzSValokN">
    <mxGraphModel dx="2150" dy="883" grid="1" gridSize="10" guides="1" tooltips="1" connect="1" arrows="1" fold="1" page="1" pageScale="1" pageWidth="3300" pageHeight="4681" math="0" shadow="0">
      <root>
        <mxCell id="0" />
        <mxCell id="1" parent="0" />
        <mxCell id="tJxeAwG3_zR4GEV5-iHH-3" style="edgeStyle=orthogonalEdgeStyle;rounded=0;orthogonalLoop=1;jettySize=auto;html=1;exitX=0.5;exitY=1;exitDx=0;exitDy=0;entryX=0.5;entryY=0;entryDx=0;entryDy=0;" parent="1" source="tJxeAwG3_zR4GEV5-iHH-1" target="tJxeAwG3_zR4GEV5-iHH-2" edge="1">
          <mxGeometry relative="1" as="geometry" />
        </mxCell>
        <mxCell id="tJxeAwG3_zR4GEV5-iHH-123" style="edgeStyle=orthogonalEdgeStyle;rounded=0;orthogonalLoop=1;jettySize=auto;html=1;exitX=0.5;exitY=1;exitDx=0;exitDy=0;" parent="1" source="tJxeAwG3_zR4GEV5-iHH-1" target="tJxeAwG3_zR4GEV5-iHH-115" edge="1">
          <mxGeometry relative="1" as="geometry" />
        </mxCell>
        <mxCell id="tJxeAwG3_zR4GEV5-iHH-1" value="开始" style="rounded=1;whiteSpace=wrap;html=1;" parent="1" vertex="1">
          <mxGeometry x="440" y="40" width="120" height="60" as="geometry" />
        </mxCell>
        <mxCell id="tJxeAwG3_zR4GEV5-iHH-8" value="" style="edgeStyle=orthogonalEdgeStyle;rounded=0;orthogonalLoop=1;jettySize=auto;html=1;" parent="1" target="tJxeAwG3_zR4GEV5-iHH-5" edge="1">
          <mxGeometry relative="1" as="geometry">
            <mxPoint x="380" y="220" as="sourcePoint" />
          </mxGeometry>
        </mxCell>
        <mxCell id="tJxeAwG3_zR4GEV5-iHH-10" style="edgeStyle=orthogonalEdgeStyle;rounded=0;orthogonalLoop=1;jettySize=auto;html=1;exitX=0.5;exitY=1;exitDx=0;exitDy=0;entryX=0.5;entryY=0;entryDx=0;entryDy=0;" parent="1" source="tJxeAwG3_zR4GEV5-iHH-5" target="tJxeAwG3_zR4GEV5-iHH-6" edge="1">
          <mxGeometry relative="1" as="geometry" />
        </mxCell>
        <mxCell id="tJxeAwG3_zR4GEV5-iHH-2" value="自行申报" style="rounded=1;whiteSpace=wrap;html=1;" parent="1" vertex="1">
          <mxGeometry x="320" y="150" width="120" height="60" as="geometry" />
        </mxCell>
        <mxCell id="tJxeAwG3_zR4GEV5-iHH-4" value="市局、市直部门、&lt;br&gt;区级、街道/园区" style="text;html=1;align=center;verticalAlign=middle;resizable=0;points=[];autosize=1;strokeColor=none;fillColor=none;" parent="1" vertex="1">
          <mxGeometry x="40" y="160" width="120" height="40" as="geometry" />
        </mxCell>
        <mxCell id="tJxeAwG3_zR4GEV5-iHH-7" value="" style="edgeStyle=orthogonalEdgeStyle;rounded=0;orthogonalLoop=1;jettySize=auto;html=1;" parent="1" source="tJxeAwG3_zR4GEV5-iHH-5" target="tJxeAwG3_zR4GEV5-iHH-6" edge="1">
          <mxGeometry relative="1" as="geometry">
            <Array as="points">
              <mxPoint x="380" y="280" />
            </Array>
          </mxGeometry>
        </mxCell>
        <mxCell id="tJxeAwG3_zR4GEV5-iHH-11" value="审核通过" style="edgeLabel;html=1;align=center;verticalAlign=middle;resizable=0;points=[];" parent="tJxeAwG3_zR4GEV5-iHH-7" vertex="1" connectable="0">
          <mxGeometry x="-0.2888" y="1" relative="1" as="geometry">
            <mxPoint x="-1" y="1" as="offset" />
          </mxGeometry>
        </mxCell>
        <mxCell id="tJxeAwG3_zR4GEV5-iHH-15" style="edgeStyle=orthogonalEdgeStyle;rounded=0;orthogonalLoop=1;jettySize=auto;html=1;exitX=0;exitY=0.5;exitDx=0;exitDy=0;entryX=0;entryY=0.5;entryDx=0;entryDy=0;" parent="1" source="tJxeAwG3_zR4GEV5-iHH-5" target="tJxeAwG3_zR4GEV5-iHH-2" edge="1">
          <mxGeometry relative="1" as="geometry">
            <Array as="points">
              <mxPoint x="260" y="290" />
              <mxPoint x="260" y="180" />
            </Array>
          </mxGeometry>
        </mxCell>
        <mxCell id="tJxeAwG3_zR4GEV5-iHH-18" style="edgeStyle=orthogonalEdgeStyle;rounded=0;orthogonalLoop=1;jettySize=auto;html=1;exitX=0;exitY=0.5;exitDx=0;exitDy=0;" parent="1" source="tJxeAwG3_zR4GEV5-iHH-6" edge="1">
          <mxGeometry relative="1" as="geometry">
            <mxPoint x="320" y="180" as="targetPoint" />
            <Array as="points">
              <mxPoint x="260" y="410" />
              <mxPoint x="260" y="180" />
            </Array>
          </mxGeometry>
        </mxCell>
        <mxCell id="tJxeAwG3_zR4GEV5-iHH-86" value="审核驳回" style="edgeLabel;html=1;align=center;verticalAlign=middle;resizable=0;points=[];" parent="tJxeAwG3_zR4GEV5-iHH-18" vertex="1" connectable="0">
          <mxGeometry x="0.3188" y="-3" relative="1" as="geometry">
            <mxPoint as="offset" />
          </mxGeometry>
        </mxCell>
        <mxCell id="tJxeAwG3_zR4GEV5-iHH-22" style="edgeStyle=orthogonalEdgeStyle;rounded=0;orthogonalLoop=1;jettySize=auto;html=1;exitX=0.5;exitY=1;exitDx=0;exitDy=0;entryX=0.5;entryY=0;entryDx=0;entryDy=0;" parent="1" source="tJxeAwG3_zR4GEV5-iHH-6" target="tJxeAwG3_zR4GEV5-iHH-21" edge="1">
          <mxGeometry relative="1" as="geometry">
            <Array as="points">
              <mxPoint x="500" y="450" />
            </Array>
          </mxGeometry>
        </mxCell>
        <mxCell id="tJxeAwG3_zR4GEV5-iHH-6" value="待市级审核" style="rhombus;whiteSpace=wrap;html=1;" parent="1" vertex="1">
          <mxGeometry x="340" y="370" width="80" height="80" as="geometry" />
        </mxCell>
        <mxCell id="tJxeAwG3_zR4GEV5-iHH-9" value="区级" style="text;html=1;align=center;verticalAlign=middle;resizable=0;points=[];autosize=1;strokeColor=none;fillColor=none;" parent="1" vertex="1">
          <mxGeometry x="40" y="275" width="50" height="30" as="geometry" />
        </mxCell>
        <mxCell id="tJxeAwG3_zR4GEV5-iHH-12" value="市局" style="text;html=1;align=center;verticalAlign=middle;resizable=0;points=[];autosize=1;strokeColor=none;fillColor=none;" parent="1" vertex="1">
          <mxGeometry x="40" y="400" width="50" height="30" as="geometry" />
        </mxCell>
        <mxCell id="tJxeAwG3_zR4GEV5-iHH-17" value="" style="edgeStyle=orthogonalEdgeStyle;rounded=0;orthogonalLoop=1;jettySize=auto;html=1;exitX=0.5;exitY=1;exitDx=0;exitDy=0;entryX=0.5;entryY=0;entryDx=0;entryDy=0;" parent="1" source="tJxeAwG3_zR4GEV5-iHH-2" target="tJxeAwG3_zR4GEV5-iHH-5" edge="1">
          <mxGeometry relative="1" as="geometry">
            <mxPoint x="380" y="210" as="sourcePoint" />
            <mxPoint x="380" y="375" as="targetPoint" />
          </mxGeometry>
        </mxCell>
        <mxCell id="tJxeAwG3_zR4GEV5-iHH-84" value="街道/园区申报" style="edgeLabel;html=1;align=center;verticalAlign=middle;resizable=0;points=[];" parent="tJxeAwG3_zR4GEV5-iHH-17" vertex="1" connectable="0">
          <mxGeometry x="-0.2435" y="1" relative="1" as="geometry">
            <mxPoint as="offset" />
          </mxGeometry>
        </mxCell>
        <mxCell id="tJxeAwG3_zR4GEV5-iHH-5" value="待区级审核" style="rhombus;whiteSpace=wrap;html=1;" parent="1" vertex="1">
          <mxGeometry x="340" y="250" width="80" height="80" as="geometry" />
        </mxCell>
        <mxCell id="tJxeAwG3_zR4GEV5-iHH-29" style="edgeStyle=orthogonalEdgeStyle;rounded=0;orthogonalLoop=1;jettySize=auto;html=1;exitX=0.5;exitY=1;exitDx=0;exitDy=0;entryX=0.5;entryY=0;entryDx=0;entryDy=0;" parent="1" source="tJxeAwG3_zR4GEV5-iHH-21" target="tJxeAwG3_zR4GEV5-iHH-25" edge="1">
          <mxGeometry relative="1" as="geometry">
            <Array as="points">
              <mxPoint x="500" y="580" />
              <mxPoint x="350" y="580" />
            </Array>
          </mxGeometry>
        </mxCell>
        <mxCell id="tJxeAwG3_zR4GEV5-iHH-44" style="edgeStyle=orthogonalEdgeStyle;rounded=0;orthogonalLoop=1;jettySize=auto;html=1;" parent="1" target="tJxeAwG3_zR4GEV5-iHH-39" edge="1">
          <mxGeometry relative="1" as="geometry">
            <mxPoint x="500" y="560" as="sourcePoint" />
            <mxPoint x="690" y="850" as="targetPoint" />
            <Array as="points">
              <mxPoint x="500" y="580" />
              <mxPoint x="280" y="580" />
              <mxPoint x="280" y="770" />
              <mxPoint x="500" y="770" />
            </Array>
          </mxGeometry>
        </mxCell>
        <mxCell id="tJxeAwG3_zR4GEV5-iHH-133" value="" style="edgeStyle=orthogonalEdgeStyle;rounded=0;orthogonalLoop=1;jettySize=auto;html=1;" parent="1" source="tJxeAwG3_zR4GEV5-iHH-21" target="tJxeAwG3_zR4GEV5-iHH-132" edge="1">
          <mxGeometry relative="1" as="geometry" />
        </mxCell>
        <mxCell id="tJxeAwG3_zR4GEV5-iHH-134" value="研判" style="edgeLabel;html=1;align=center;verticalAlign=middle;resizable=0;points=[];" parent="tJxeAwG3_zR4GEV5-iHH-133" vertex="1" connectable="0">
          <mxGeometry x="-0.0385" relative="1" as="geometry">
            <mxPoint as="offset" />
          </mxGeometry>
        </mxCell>
        <mxCell id="tJxeAwG3_zR4GEV5-iHH-148" style="edgeStyle=orthogonalEdgeStyle;rounded=0;orthogonalLoop=1;jettySize=auto;html=1;entryX=0.5;entryY=0;entryDx=0;entryDy=0;" parent="1" source="tJxeAwG3_zR4GEV5-iHH-21" target="tJxeAwG3_zR4GEV5-iHH-102" edge="1">
          <mxGeometry relative="1" as="geometry" />
        </mxCell>
        <mxCell id="tJxeAwG3_zR4GEV5-iHH-21" value="流转" style="whiteSpace=wrap;html=1;" parent="1" vertex="1">
          <mxGeometry x="440" y="500" width="120" height="60" as="geometry" />
        </mxCell>
        <mxCell id="tJxeAwG3_zR4GEV5-iHH-24" value="市局" style="text;html=1;align=center;verticalAlign=middle;resizable=0;points=[];autosize=1;strokeColor=none;fillColor=none;" parent="1" vertex="1">
          <mxGeometry x="38" y="515" width="50" height="30" as="geometry" />
        </mxCell>
        <mxCell id="tJxeAwG3_zR4GEV5-iHH-109" style="edgeStyle=orthogonalEdgeStyle;rounded=0;orthogonalLoop=1;jettySize=auto;html=1;exitX=0.5;exitY=1;exitDx=0;exitDy=0;" parent="1" source="tJxeAwG3_zR4GEV5-iHH-25" edge="1">
          <mxGeometry relative="1" as="geometry">
            <mxPoint x="500" y="761.9999999999999" as="targetPoint" />
            <Array as="points">
              <mxPoint x="350" y="672" />
              <mxPoint x="500" y="672" />
            </Array>
          </mxGeometry>
        </mxCell>
        <mxCell id="tJxeAwG3_zR4GEV5-iHH-25" value="综合部" style="whiteSpace=wrap;html=1;" parent="1" vertex="1">
          <mxGeometry x="290" y="600" width="120" height="60" as="geometry" />
        </mxCell>
        <mxCell id="tJxeAwG3_zR4GEV5-iHH-110" style="edgeStyle=orthogonalEdgeStyle;rounded=0;orthogonalLoop=1;jettySize=auto;html=1;" parent="1" source="tJxeAwG3_zR4GEV5-iHH-33" edge="1">
          <mxGeometry relative="1" as="geometry">
            <mxPoint x="500" y="761.9999999999999" as="targetPoint" />
            <Array as="points">
              <mxPoint x="500" y="682" />
            </Array>
          </mxGeometry>
        </mxCell>
        <mxCell id="tJxeAwG3_zR4GEV5-iHH-27" value="外资促进处" style="whiteSpace=wrap;html=1;" parent="1" vertex="1">
          <mxGeometry x="590" y="600" width="120" height="60" as="geometry" />
        </mxCell>
        <mxCell id="tJxeAwG3_zR4GEV5-iHH-30" style="edgeStyle=orthogonalEdgeStyle;rounded=0;orthogonalLoop=1;jettySize=auto;html=1;exitX=0.5;exitY=1;exitDx=0;exitDy=0;entryX=0.583;entryY=0;entryDx=0;entryDy=0;entryPerimeter=0;" parent="1" source="tJxeAwG3_zR4GEV5-iHH-21" target="tJxeAwG3_zR4GEV5-iHH-27" edge="1">
          <mxGeometry relative="1" as="geometry">
            <Array as="points">
              <mxPoint x="500" y="580" />
              <mxPoint x="660" y="580" />
            </Array>
          </mxGeometry>
        </mxCell>
        <mxCell id="tJxeAwG3_zR4GEV5-iHH-31" value="推送" style="edgeLabel;html=1;align=center;verticalAlign=middle;resizable=0;points=[];" parent="tJxeAwG3_zR4GEV5-iHH-30" vertex="1" connectable="0">
          <mxGeometry x="-0.9014" relative="1" as="geometry">
            <mxPoint y="1" as="offset" />
          </mxGeometry>
        </mxCell>
        <mxCell id="tJxeAwG3_zR4GEV5-iHH-32" value="处室" style="text;html=1;align=center;verticalAlign=middle;resizable=0;points=[];autosize=1;strokeColor=none;fillColor=none;" parent="1" vertex="1">
          <mxGeometry x="30" y="673" width="50" height="30" as="geometry" />
        </mxCell>
        <mxCell id="tJxeAwG3_zR4GEV5-iHH-106" style="edgeStyle=orthogonalEdgeStyle;rounded=0;orthogonalLoop=1;jettySize=auto;html=1;entryX=0.5;entryY=0;entryDx=0;entryDy=0;" parent="1" source="tJxeAwG3_zR4GEV5-iHH-33" target="tJxeAwG3_zR4GEV5-iHH-39" edge="1">
          <mxGeometry relative="1" as="geometry" />
        </mxCell>
        <mxCell id="tJxeAwG3_zR4GEV5-iHH-114" value="推送" style="edgeLabel;html=1;align=center;verticalAlign=middle;resizable=0;points=[];" parent="tJxeAwG3_zR4GEV5-iHH-106" vertex="1" connectable="0">
          <mxGeometry x="0.045" y="1" relative="1" as="geometry">
            <mxPoint x="-1" y="-1" as="offset" />
          </mxGeometry>
        </mxCell>
        <mxCell id="tJxeAwG3_zR4GEV5-iHH-146" style="edgeStyle=orthogonalEdgeStyle;rounded=0;orthogonalLoop=1;jettySize=auto;html=1;exitX=0.5;exitY=1;exitDx=0;exitDy=0;entryX=0.5;entryY=0;entryDx=0;entryDy=0;" parent="1" source="tJxeAwG3_zR4GEV5-iHH-39" target="tJxeAwG3_zR4GEV5-iHH-54" edge="1">
          <mxGeometry relative="1" as="geometry" />
        </mxCell>
        <mxCell id="tJxeAwG3_zR4GEV5-iHH-147" value="承接" style="edgeLabel;html=1;align=center;verticalAlign=middle;resizable=0;points=[];" parent="tJxeAwG3_zR4GEV5-iHH-146" vertex="1" connectable="0">
          <mxGeometry x="-0.2927" relative="1" as="geometry">
            <mxPoint y="1" as="offset" />
          </mxGeometry>
        </mxCell>
        <mxCell id="tJxeAwG3_zR4GEV5-iHH-39" value="项目承接" style="whiteSpace=wrap;html=1;" parent="1" vertex="1">
          <mxGeometry x="440" y="806" width="120" height="60" as="geometry" />
        </mxCell>
        <mxCell id="tJxeAwG3_zR4GEV5-iHH-40" value="区级" style="text;html=1;align=center;verticalAlign=middle;resizable=0;points=[];autosize=1;strokeColor=none;fillColor=none;" parent="1" vertex="1">
          <mxGeometry x="38" y="821" width="50" height="30" as="geometry" />
        </mxCell>
        <mxCell id="tJxeAwG3_zR4GEV5-iHH-70" style="edgeStyle=orthogonalEdgeStyle;rounded=0;orthogonalLoop=1;jettySize=auto;html=1;entryX=0.5;entryY=0;entryDx=0;entryDy=0;" parent="1" source="tJxeAwG3_zR4GEV5-iHH-54" target="tJxeAwG3_zR4GEV5-iHH-68" edge="1">
          <mxGeometry relative="1" as="geometry" />
        </mxCell>
        <mxCell id="tJxeAwG3_zR4GEV5-iHH-71" value="转签约" style="edgeLabel;html=1;align=center;verticalAlign=middle;resizable=0;points=[];" parent="tJxeAwG3_zR4GEV5-iHH-70" vertex="1" connectable="0">
          <mxGeometry x="-0.2846" y="1" relative="1" as="geometry">
            <mxPoint y="1" as="offset" />
          </mxGeometry>
        </mxCell>
        <mxCell id="tJxeAwG3_zR4GEV5-iHH-54" value="在谈列表" style="whiteSpace=wrap;html=1;" parent="1" vertex="1">
          <mxGeometry x="440" y="905" width="120" height="60" as="geometry" />
        </mxCell>
        <mxCell id="tJxeAwG3_zR4GEV5-iHH-78" style="edgeStyle=orthogonalEdgeStyle;rounded=0;orthogonalLoop=1;jettySize=auto;html=1;exitX=0.5;exitY=1;exitDx=0;exitDy=0;entryX=0.5;entryY=0;entryDx=0;entryDy=0;" parent="1" source="tJxeAwG3_zR4GEV5-iHH-68" target="tJxeAwG3_zR4GEV5-iHH-76" edge="1">
          <mxGeometry relative="1" as="geometry" />
        </mxCell>
        <mxCell id="tJxeAwG3_zR4GEV5-iHH-79" value="审核通过" style="edgeLabel;html=1;align=center;verticalAlign=middle;resizable=0;points=[];" parent="tJxeAwG3_zR4GEV5-iHH-78" vertex="1" connectable="0">
          <mxGeometry x="-0.3074" y="-1" relative="1" as="geometry">
            <mxPoint y="1" as="offset" />
          </mxGeometry>
        </mxCell>
        <mxCell id="tJxeAwG3_zR4GEV5-iHH-81" style="edgeStyle=orthogonalEdgeStyle;rounded=0;orthogonalLoop=1;jettySize=auto;html=1;exitX=0;exitY=0.5;exitDx=0;exitDy=0;entryX=0;entryY=0.5;entryDx=0;entryDy=0;" parent="1" source="tJxeAwG3_zR4GEV5-iHH-68" target="tJxeAwG3_zR4GEV5-iHH-76" edge="1">
          <mxGeometry relative="1" as="geometry">
            <Array as="points">
              <mxPoint x="340" y="1046" />
              <mxPoint x="340" y="1166" />
            </Array>
          </mxGeometry>
        </mxCell>
        <mxCell id="tJxeAwG3_zR4GEV5-iHH-82" value="审核驳回" style="edgeLabel;html=1;align=center;verticalAlign=middle;resizable=0;points=[];" parent="tJxeAwG3_zR4GEV5-iHH-81" vertex="1" connectable="0">
          <mxGeometry x="-0.0605" y="2" relative="1" as="geometry">
            <mxPoint as="offset" />
          </mxGeometry>
        </mxCell>
        <mxCell id="tJxeAwG3_zR4GEV5-iHH-68" value="待市级审核" style="rhombus;whiteSpace=wrap;html=1;" parent="1" vertex="1">
          <mxGeometry x="440" y="1006" width="120" height="80" as="geometry" />
        </mxCell>
        <mxCell id="tJxeAwG3_zR4GEV5-iHH-74" value="市局" style="text;html=1;align=center;verticalAlign=middle;resizable=0;points=[];autosize=1;strokeColor=none;fillColor=none;" parent="1" vertex="1">
          <mxGeometry x="38" y="1031" width="50" height="30" as="geometry" />
        </mxCell>
        <mxCell id="tJxeAwG3_zR4GEV5-iHH-76" value="签约列表" style="rounded=1;whiteSpace=wrap;html=1;" parent="1" vertex="1">
          <mxGeometry x="440" y="1122" width="120" height="60" as="geometry" />
        </mxCell>
        <mxCell id="tJxeAwG3_zR4GEV5-iHH-77" value="市局、市直部门、&lt;br&gt;区级、街道/园区" style="text;html=1;align=center;verticalAlign=middle;resizable=0;points=[];autosize=1;strokeColor=none;fillColor=none;" parent="1" vertex="1">
          <mxGeometry x="38" y="1132" width="120" height="40" as="geometry" />
        </mxCell>
        <mxCell id="tJxeAwG3_zR4GEV5-iHH-88" value="（审核驳回的项目-签约列表需要去筛选：签约时间、审核状态）" style="text;html=1;align=center;verticalAlign=middle;resizable=0;points=[];autosize=1;strokeColor=none;fillColor=none;" parent="1" vertex="1">
          <mxGeometry x="320" y="1182" width="360" height="30" as="geometry" />
        </mxCell>
        <mxCell id="tJxeAwG3_zR4GEV5-iHH-89" value="" style="endArrow=none;dashed=1;html=1;dashPattern=1 3;strokeWidth=2;rounded=0;entryX=0.934;entryY=0.599;entryDx=0;entryDy=0;entryPerimeter=0;" parent="1" target="tJxeAwG3_zR4GEV5-iHH-9" edge="1">
          <mxGeometry width="50" height="50" relative="1" as="geometry">
            <mxPoint x="250" y="293" as="sourcePoint" />
            <mxPoint x="430" y="240" as="targetPoint" />
          </mxGeometry>
        </mxCell>
        <mxCell id="tJxeAwG3_zR4GEV5-iHH-91" value="" style="endArrow=none;dashed=1;html=1;dashPattern=1 3;strokeWidth=2;rounded=0;" parent="1" edge="1">
          <mxGeometry width="50" height="50" relative="1" as="geometry">
            <mxPoint x="240" y="180" as="sourcePoint" />
            <mxPoint x="160" y="180" as="targetPoint" />
            <Array as="points" />
          </mxGeometry>
        </mxCell>
        <mxCell id="tJxeAwG3_zR4GEV5-iHH-92" value="" style="endArrow=none;dashed=1;html=1;dashPattern=1 3;strokeWidth=2;rounded=0;entryX=0.934;entryY=0.599;entryDx=0;entryDy=0;entryPerimeter=0;" parent="1" edge="1">
          <mxGeometry width="50" height="50" relative="1" as="geometry">
            <mxPoint x="246" y="415" as="sourcePoint" />
            <mxPoint x="83" y="415" as="targetPoint" />
          </mxGeometry>
        </mxCell>
        <mxCell id="tJxeAwG3_zR4GEV5-iHH-93" value="" style="endArrow=none;dashed=1;html=1;dashPattern=1 3;strokeWidth=2;rounded=0;" parent="1" edge="1">
          <mxGeometry width="50" height="50" relative="1" as="geometry">
            <mxPoint x="430" y="531" as="sourcePoint" />
            <mxPoint x="100" y="531" as="targetPoint" />
          </mxGeometry>
        </mxCell>
        <mxCell id="AULQfeBx-v_5Ob0I-rYo-1" style="edgeStyle=orthogonalEdgeStyle;rounded=0;orthogonalLoop=1;jettySize=auto;html=1;exitX=0.1;exitY=0.5;exitDx=0;exitDy=0;exitPerimeter=0;" edge="1" parent="1" source="tJxeAwG3_zR4GEV5-iHH-94" target="tJxeAwG3_zR4GEV5-iHH-32">
          <mxGeometry relative="1" as="geometry" />
        </mxCell>
        <mxCell id="tJxeAwG3_zR4GEV5-iHH-94" value="" style="shape=curlyBracket;whiteSpace=wrap;html=1;rounded=1;labelPosition=left;verticalLabelPosition=middle;align=right;verticalAlign=middle;dashed=1;" parent="1" vertex="1">
          <mxGeometry x="120" y="580" width="40" height="216" as="geometry" />
        </mxCell>
        <mxCell id="tJxeAwG3_zR4GEV5-iHH-99" value="" style="endArrow=none;dashed=1;html=1;dashPattern=1 3;strokeWidth=2;rounded=0;" parent="1" edge="1">
          <mxGeometry width="50" height="50" relative="1" as="geometry">
            <mxPoint x="330" y="1046" as="sourcePoint" />
            <mxPoint x="90" y="1046" as="targetPoint" />
            <Array as="points" />
          </mxGeometry>
        </mxCell>
        <mxCell id="tJxeAwG3_zR4GEV5-iHH-100" value="" style="endArrow=none;dashed=1;html=1;dashPattern=1 3;strokeWidth=2;rounded=0;entryX=1.026;entryY=0.5;entryDx=0;entryDy=0;entryPerimeter=0;" parent="1" edge="1">
          <mxGeometry width="50" height="50" relative="1" as="geometry">
            <mxPoint x="330" y="1151.82" as="sourcePoint" />
            <mxPoint x="153.12" y="1152" as="targetPoint" />
            <Array as="points" />
          </mxGeometry>
        </mxCell>
        <mxCell id="tJxeAwG3_zR4GEV5-iHH-108" style="edgeStyle=orthogonalEdgeStyle;rounded=0;orthogonalLoop=1;jettySize=auto;html=1;entryX=0.5;entryY=0;entryDx=0;entryDy=0;" parent="1" source="tJxeAwG3_zR4GEV5-iHH-102" target="tJxeAwG3_zR4GEV5-iHH-33" edge="1">
          <mxGeometry relative="1" as="geometry" />
        </mxCell>
        <mxCell id="tJxeAwG3_zR4GEV5-iHH-102" value="重大项目处" style="whiteSpace=wrap;html=1;" parent="1" vertex="1">
          <mxGeometry x="440" y="600" width="120" height="60" as="geometry" />
        </mxCell>
        <mxCell id="tJxeAwG3_zR4GEV5-iHH-112" value="" style="edgeStyle=orthogonalEdgeStyle;rounded=0;orthogonalLoop=1;jettySize=auto;html=1;" parent="1" source="tJxeAwG3_zR4GEV5-iHH-27" target="tJxeAwG3_zR4GEV5-iHH-33" edge="1">
          <mxGeometry relative="1" as="geometry">
            <mxPoint x="500" y="761.9999999999999" as="targetPoint" />
            <mxPoint x="650" y="660" as="sourcePoint" />
            <Array as="points">
              <mxPoint x="650" y="672" />
              <mxPoint x="500" y="672" />
            </Array>
          </mxGeometry>
        </mxCell>
        <mxCell id="tJxeAwG3_zR4GEV5-iHH-113" value="推送" style="edgeLabel;html=1;align=center;verticalAlign=middle;resizable=0;points=[];" parent="tJxeAwG3_zR4GEV5-iHH-112" vertex="1" connectable="0">
          <mxGeometry x="0.6646" y="-1" relative="1" as="geometry">
            <mxPoint x="1" y="14" as="offset" />
          </mxGeometry>
        </mxCell>
        <mxCell id="tJxeAwG3_zR4GEV5-iHH-33" value="招商1/2/3/4部" style="whiteSpace=wrap;html=1;" parent="1" vertex="1">
          <mxGeometry x="440" y="704" width="120" height="60" as="geometry" />
        </mxCell>
        <mxCell id="tJxeAwG3_zR4GEV5-iHH-119" style="edgeStyle=orthogonalEdgeStyle;rounded=0;orthogonalLoop=1;jettySize=auto;html=1;exitX=0.5;exitY=1;exitDx=0;exitDy=0;entryX=0.5;entryY=0;entryDx=0;entryDy=0;" parent="1" source="tJxeAwG3_zR4GEV5-iHH-115" target="tJxeAwG3_zR4GEV5-iHH-117" edge="1">
          <mxGeometry relative="1" as="geometry" />
        </mxCell>
        <mxCell id="tJxeAwG3_zR4GEV5-iHH-120" value="市局、市直部门&lt;br&gt;区级申报" style="edgeLabel;html=1;align=center;verticalAlign=middle;resizable=0;points=[];" parent="tJxeAwG3_zR4GEV5-iHH-119" vertex="1" connectable="0">
          <mxGeometry x="-0.1688" y="-2" relative="1" as="geometry">
            <mxPoint x="2" y="1" as="offset" />
          </mxGeometry>
        </mxCell>
        <mxCell id="tJxeAwG3_zR4GEV5-iHH-115" value="自行申报" style="rounded=1;whiteSpace=wrap;html=1;" parent="1" vertex="1">
          <mxGeometry x="555" y="150" width="120" height="60" as="geometry" />
        </mxCell>
        <mxCell id="tJxeAwG3_zR4GEV5-iHH-121" style="edgeStyle=orthogonalEdgeStyle;rounded=0;orthogonalLoop=1;jettySize=auto;html=1;exitX=0.5;exitY=1;exitDx=0;exitDy=0;entryX=0.5;entryY=0;entryDx=0;entryDy=0;" parent="1" source="tJxeAwG3_zR4GEV5-iHH-117" target="tJxeAwG3_zR4GEV5-iHH-21" edge="1">
          <mxGeometry relative="1" as="geometry">
            <Array as="points">
              <mxPoint x="615" y="450" />
              <mxPoint x="500" y="450" />
            </Array>
          </mxGeometry>
        </mxCell>
        <mxCell id="tJxeAwG3_zR4GEV5-iHH-177" value="审核通过" style="edgeLabel;html=1;align=center;verticalAlign=middle;resizable=0;points=[];" parent="tJxeAwG3_zR4GEV5-iHH-121" vertex="1" connectable="0">
          <mxGeometry x="0.6812" relative="1" as="geometry">
            <mxPoint as="offset" />
          </mxGeometry>
        </mxCell>
        <mxCell id="tJxeAwG3_zR4GEV5-iHH-124" style="edgeStyle=orthogonalEdgeStyle;rounded=0;orthogonalLoop=1;jettySize=auto;html=1;exitX=1;exitY=0.5;exitDx=0;exitDy=0;entryX=1;entryY=0.5;entryDx=0;entryDy=0;" parent="1" source="tJxeAwG3_zR4GEV5-iHH-117" target="tJxeAwG3_zR4GEV5-iHH-115" edge="1">
          <mxGeometry relative="1" as="geometry">
            <Array as="points">
              <mxPoint x="725" y="345" />
              <mxPoint x="725" y="180" />
            </Array>
          </mxGeometry>
        </mxCell>
        <mxCell id="tJxeAwG3_zR4GEV5-iHH-125" value="审核驳回" style="edgeLabel;html=1;align=center;verticalAlign=middle;resizable=0;points=[];" parent="tJxeAwG3_zR4GEV5-iHH-124" vertex="1" connectable="0">
          <mxGeometry x="0.0649" y="2" relative="1" as="geometry">
            <mxPoint y="11" as="offset" />
          </mxGeometry>
        </mxCell>
        <mxCell id="tJxeAwG3_zR4GEV5-iHH-117" value="待市级审核" style="rhombus;whiteSpace=wrap;html=1;" parent="1" vertex="1">
          <mxGeometry x="575" y="305" width="80" height="80" as="geometry" />
        </mxCell>
        <mxCell id="tJxeAwG3_zR4GEV5-iHH-130" value="" style="endArrow=none;dashed=1;html=1;dashPattern=1 3;strokeWidth=2;rounded=0;" parent="1" edge="1">
          <mxGeometry width="50" height="50" relative="1" as="geometry">
            <mxPoint x="420" y="835.64" as="sourcePoint" />
            <mxPoint x="90" y="835.64" as="targetPoint" />
          </mxGeometry>
        </mxCell>
        <mxCell id="tJxeAwG3_zR4GEV5-iHH-136" value="" style="edgeStyle=orthogonalEdgeStyle;rounded=0;orthogonalLoop=1;jettySize=auto;html=1;" parent="1" source="tJxeAwG3_zR4GEV5-iHH-132" target="tJxeAwG3_zR4GEV5-iHH-135" edge="1">
          <mxGeometry relative="1" as="geometry" />
        </mxCell>
        <mxCell id="tJxeAwG3_zR4GEV5-iHH-137" value="填写意见，&lt;br&gt;上传报告" style="edgeLabel;html=1;align=center;verticalAlign=middle;resizable=0;points=[];" parent="tJxeAwG3_zR4GEV5-iHH-136" vertex="1" connectable="0">
          <mxGeometry x="-0.0809" relative="1" as="geometry">
            <mxPoint as="offset" />
          </mxGeometry>
        </mxCell>
        <mxCell id="tJxeAwG3_zR4GEV5-iHH-132" value="市直部门/机构" style="whiteSpace=wrap;html=1;direction=west;" parent="1" vertex="1">
          <mxGeometry x="620" y="500" width="120" height="60" as="geometry" />
        </mxCell>
        <mxCell id="tJxeAwG3_zR4GEV5-iHH-138" style="edgeStyle=orthogonalEdgeStyle;rounded=0;orthogonalLoop=1;jettySize=auto;html=1;exitX=0.5;exitY=0;exitDx=0;exitDy=0;entryX=0.5;entryY=0;entryDx=0;entryDy=0;" parent="1" source="tJxeAwG3_zR4GEV5-iHH-135" target="tJxeAwG3_zR4GEV5-iHH-21" edge="1">
          <mxGeometry relative="1" as="geometry">
            <Array as="points">
              <mxPoint x="870" y="480" />
              <mxPoint x="500" y="480" />
            </Array>
          </mxGeometry>
        </mxCell>
        <mxCell id="tJxeAwG3_zR4GEV5-iHH-142" value="研判通过" style="edgeLabel;html=1;align=center;verticalAlign=middle;resizable=0;points=[];" parent="tJxeAwG3_zR4GEV5-iHH-138" vertex="1" connectable="0">
          <mxGeometry x="-0.0332" y="2" relative="1" as="geometry">
            <mxPoint x="-2" as="offset" />
          </mxGeometry>
        </mxCell>
        <mxCell id="tJxeAwG3_zR4GEV5-iHH-140" style="edgeStyle=orthogonalEdgeStyle;rounded=0;orthogonalLoop=1;jettySize=auto;html=1;exitX=1;exitY=0.5;exitDx=0;exitDy=0;entryX=1;entryY=0.5;entryDx=0;entryDy=0;" parent="1" source="tJxeAwG3_zR4GEV5-iHH-135" target="tJxeAwG3_zR4GEV5-iHH-115" edge="1">
          <mxGeometry relative="1" as="geometry" />
        </mxCell>
        <mxCell id="tJxeAwG3_zR4GEV5-iHH-141" value="研判驳回" style="edgeLabel;html=1;align=center;verticalAlign=middle;resizable=0;points=[];" parent="tJxeAwG3_zR4GEV5-iHH-140" vertex="1" connectable="0">
          <mxGeometry x="-0.3698" relative="1" as="geometry">
            <mxPoint as="offset" />
          </mxGeometry>
        </mxCell>
        <mxCell id="tJxeAwG3_zR4GEV5-iHH-135" value="市级审核" style="rhombus;whiteSpace=wrap;html=1;" parent="1" vertex="1">
          <mxGeometry x="830" y="502.5" width="80" height="55" as="geometry" />
        </mxCell>
        <mxCell id="tJxeAwG3_zR4GEV5-iHH-149" value="（15天内未承接，则预警）" style="text;html=1;align=center;verticalAlign=middle;resizable=0;points=[];autosize=1;strokeColor=none;fillColor=none;" parent="1" vertex="1">
          <mxGeometry x="499" y="865" width="170" height="30" as="geometry" />
        </mxCell>
        <mxCell id="tJxeAwG3_zR4GEV5-iHH-150" value="（3天内未推送，则预警）" style="text;html=1;align=center;verticalAlign=middle;resizable=0;points=[];autosize=1;strokeColor=none;fillColor=none;" parent="1" vertex="1">
          <mxGeometry x="500" y="669" width="160" height="30" as="geometry" />
        </mxCell>
        <mxCell id="tJxeAwG3_zR4GEV5-iHH-152" value="（推送过程中，若该项目跟进不下去了可选择退库申请）" style="text;html=1;align=center;verticalAlign=middle;resizable=0;points=[];autosize=1;strokeColor=none;fillColor=none;" parent="1" vertex="1">
          <mxGeometry x="740" y="650" width="320" height="30" as="geometry" />
        </mxCell>
        <mxCell id="tJxeAwG3_zR4GEV5-iHH-168" style="edgeStyle=orthogonalEdgeStyle;rounded=0;orthogonalLoop=1;jettySize=auto;html=1;exitX=1;exitY=0.5;exitDx=0;exitDy=0;entryX=0;entryY=0.5;entryDx=0;entryDy=0;" parent="1" source="tJxeAwG3_zR4GEV5-iHH-160" target="tJxeAwG3_zR4GEV5-iHH-165" edge="1">
          <mxGeometry relative="1" as="geometry" />
        </mxCell>
        <mxCell id="tJxeAwG3_zR4GEV5-iHH-170" value="审核驳回" style="edgeLabel;html=1;align=center;verticalAlign=middle;resizable=0;points=[];" parent="tJxeAwG3_zR4GEV5-iHH-168" vertex="1" connectable="0">
          <mxGeometry x="-0.1379" relative="1" as="geometry">
            <mxPoint as="offset" />
          </mxGeometry>
        </mxCell>
        <mxCell id="tJxeAwG3_zR4GEV5-iHH-175" style="edgeStyle=orthogonalEdgeStyle;rounded=0;orthogonalLoop=1;jettySize=auto;html=1;exitX=0.5;exitY=1;exitDx=0;exitDy=0;" parent="1" source="tJxeAwG3_zR4GEV5-iHH-160" edge="1">
          <mxGeometry relative="1" as="geometry">
            <mxPoint x="860" y="790" as="targetPoint" />
          </mxGeometry>
        </mxCell>
        <mxCell id="tJxeAwG3_zR4GEV5-iHH-176" value="审核通过" style="edgeLabel;html=1;align=center;verticalAlign=middle;resizable=0;points=[];" parent="tJxeAwG3_zR4GEV5-iHH-175" vertex="1" connectable="0">
          <mxGeometry x="-0.1733" y="2" relative="1" as="geometry">
            <mxPoint as="offset" />
          </mxGeometry>
        </mxCell>
        <mxCell id="tJxeAwG3_zR4GEV5-iHH-160" value="市级审核" style="rhombus;whiteSpace=wrap;html=1;" parent="1" vertex="1">
          <mxGeometry x="820" y="700" width="80" height="60" as="geometry" />
        </mxCell>
        <mxCell id="tJxeAwG3_zR4GEV5-iHH-164" value="退库列表" style="rounded=1;whiteSpace=wrap;html=1;" parent="1" vertex="1">
          <mxGeometry x="800" y="791" width="120" height="60" as="geometry" />
        </mxCell>
        <mxCell id="tJxeAwG3_zR4GEV5-iHH-165" value="退库失败" style="rounded=1;whiteSpace=wrap;html=1;" parent="1" vertex="1">
          <mxGeometry x="970" y="700" width="120" height="60" as="geometry" />
        </mxCell>
        <mxCell id="tJxeAwG3_zR4GEV5-iHH-173" style="edgeStyle=orthogonalEdgeStyle;rounded=0;orthogonalLoop=1;jettySize=auto;html=1;exitX=0.1;exitY=0.5;exitDx=0;exitDy=0;exitPerimeter=0;entryX=0;entryY=0.5;entryDx=0;entryDy=0;" parent="1" source="tJxeAwG3_zR4GEV5-iHH-172" target="tJxeAwG3_zR4GEV5-iHH-160" edge="1">
          <mxGeometry relative="1" as="geometry" />
        </mxCell>
        <mxCell id="tJxeAwG3_zR4GEV5-iHH-174" value="退库申请" style="edgeLabel;html=1;align=center;verticalAlign=middle;resizable=0;points=[];" parent="tJxeAwG3_zR4GEV5-iHH-173" vertex="1" connectable="0">
          <mxGeometry x="-0.0074" y="1" relative="1" as="geometry">
            <mxPoint x="-9" as="offset" />
          </mxGeometry>
        </mxCell>
        <mxCell id="tJxeAwG3_zR4GEV5-iHH-172" value="" style="shape=curlyBracket;whiteSpace=wrap;html=1;rounded=1;flipH=1;labelPosition=right;verticalLabelPosition=middle;align=left;verticalAlign=middle;" parent="1" vertex="1">
          <mxGeometry x="718" y="620" width="40" height="220" as="geometry" />
        </mxCell>
      </root>
    </mxGraphModel>
  </diagram>
</mxfile>
